{"title":"Naruto Shippuuden 297","uid":8059657,"size":87801345,"categoryP":"video","categoryS":"other","magnet":"?xt=urn:btih:e16781a33c262b865f8bfc2d01bceba0e97330fa&amp;dn=Naruto+Shippuuden+297&amp;tr=udp%3A%2F%2Ftracker.openbittorrent.com%3A80&amp;tr=udp%3A%2F%2Fopen.demonii.com%3A1337&amp;tr=udp%3A%2F%2Ftracker.coppersurfer.tk%3A6969&amp;tr=udp%3A%2F%2Fexodus.desync.com%3A6969","seeders":0,"leechers":1,"uploader":"canc232","files":1,"time":1359042379,"description":"Format : MPEG-4 \nFormat profile : Base Media / Version 2 \nCodec ID : mp42 \nFile size : 83.7 MiB \nDuration : 23mn 9s \nOverall bit rate mode : Variable \nOverall bit rate : 505 Kbps\nWriting application : mp4creator 1.4.4 \n\nVideo \nID : 1 \nFormat : MPEG-4 Visual \nFormat profile : Simple@L1 \nFormat settings, Matrix : Default (H.263) \nCodec ID : 20 \nDuration : 23mn 9s \nBit rate mode : Variable \nBit rate : 387 Kbps \nMaximum bit rate : 2 932 Kbps \nWidth : 640 pixels \nHeight : 360 pixels \nDisplay aspect ratio : 16:9 \nFrame rate mode : Variable \nFrame rate : 23.976 fps \nMinimum frame rate : 23.974 fps \nMaximum frame rate : 23.981 fps \nColor space : YUV \nChroma subsampling : 4:2:0 \nBit depth : 8 bits \nScan type : Progressive \nCompression mode : Lossy \nBits/(Pixel*Frame) : 0.070 \nStream size : 64.1 MiB (77%) \nLanguage : English \n\nAudio \nID : 2 \nFormat : AAC \nFormat/Info : Advanced Audio Codec \nFormat profile : LC \nCodec ID : 40 \nDuration : 23mn 9s \nBit rate mode : Variable \nBit rate : 115 Kbps \nMaximum bit rate : 178 Kbps \nChannel(s) : 2 channels \nChannel positions : Front: L R \nSampling rate : 48.0 KHz \nCompression mode : Lossy \nStream size : 19.1 MiB (23%) \nLanguage : English \n\n","torrent":{"xt":"urn:btih:e16781a33c262b865f8bfc2d01bceba0e97330fa","amp;dn":"Naruto+Shippuuden+297","amp;tr":["udp%3A%2F%2Ftracker.openbittorrent.com%3A80","udp%3A%2F%2Fopen.demonii.com%3A1337","udp%3A%2F%2Ftracker.coppersurfer.tk%3A6969","udp%3A%2F%2Fexodus.desync.com%3A6969"],"infoHash":"e16781a33c262b865f8bfc2d01bceba0e97330fa","infoHashBuffer":{"type":"Buffer","data":[225,103,129,163,60,38,43,134,95,139,252,45,1,188,235,160,233,115,48,250]},"announce":[],"urlList":[]}}